<svg xmlns="http://www.w3.org/2000/svg" width="676" height="656" preserveAspectRatio="xMidYMid meet" version="1.0" viewBox="0 0 507 492"><metadata>Created by potrace 1.16, written by Peter Selinger 2001-2019</metadata><g fill="#000" stroke="none"><path d="M582 4546 c-71 -30 -137 -97 -162 -164 -20 -53 -20 -74 -18 -1935 l3 -1882 23 -42 c35 -66 79 -110 140 -140 l57 -28 1885 0 1885 0 51 27 c28 15 72 50 97 78 84 94 78 -86 75 2016 l-3 1869 -24 49 c-29 60 -85 117 -143 148 l-43 23 -1885 2 -1885 2 -53 -23z m1727 -1519 c6 -8 48 -121 95 -253 46 -131 143 -406 215 -610 72 -204 131 -377 131 -383 0 -8 -39 -11 -142 -9 l-143 3 -48 148 -48 147 -224 0 -223 0 -11 -32 c-5 -18 -26 -86 -46 -150 l-36 -118 -138 0 c-76 0 -140 3 -144 6 -5 6 57 192 203 604 34 96 76 218 95 270 88 255 129 366 138 378 14 18 310 17 326 -1z m1155 2 c5 -5 -159 -454 -427 -1169 l-32 -85 -117 -3 c-105 -2 -118 -1 -118 14 0 9 51 155 114 323 63 168 164 441 226 606 61 165 116 305 122 312 10 12 220 15 232 2z m664 -444 l277 -140 3 -57 c3 -50 0 -59 -20 -72 -29 -18 -815 -366 -829 -366 -6 0 -9 40 -7 102 l3 102 110 46 c61 26 184 77 275 115 91 37 168 70 173 74 4 4 -70 44 -165 88 -95 44 -224 105 -285 134 l-113 52 0 97 c0 53 3 99 6 103 6 6 106 -42 572 -278z m-2680 184 c-2 -42 -8 -65 -18 -70 -22 -12 -185 -91 -423 -204 -114 -54 -204 -102 -200 -106 4 -4 116 -54 248 -109 132 -56 274 -117 315 -135 l75 -32 3 -67 c2 -36 1 -66 -1 -66 -3 0 -130 55 -283 123 -154 68 -315 139 -359 157 -165 71 -180 81 -183 122 -3 29 2 40 20 52 40 26 782 395 796 395 10 1 12 -15 10 -60z" transform="translate(0.000000,492.000000) scale(0.100000,-0.100000)"/><path d="M2126 2745 c-16 -55 -31 -104 -101 -333 -14 -46 -25 -90 -25 -98 0 -12 26 -14 150 -14 167 0 162 -2 135 67 -8 21 -37 112 -64 203 -27 91 -55 181 -63 200 l-15 35 -17 -60z" transform="translate(0.000000,492.000000) scale(0.100000,-0.100000)"/></g></svg>